<?xml version="1.0" encoding="utf-8"?>
<svg width="100" height="100" viewBox="0 0 100 100" fill="none" xmlns="http://www.w3.org/2000/svg">
  <path d="M62.4999 91.6665C61.3948 91.6665 60.335 91.2275 59.5536 90.4461C58.7722 89.6647 58.3333 88.6049 58.3333 87.4998V70.8331C58.3331 70.1473 58.5023 69.4721 58.8258 68.8674C59.1492 68.2626 59.6169 67.7471 60.1874 67.3665L72.6874 59.0331C73.3721 58.5763 74.1768 58.3325 74.9999 58.3325C75.823 58.3325 76.6277 58.5763 77.3124 59.0331L89.8124 67.3665C90.3829 67.7471 90.8506 68.2626 91.1741 68.8674C91.4975 69.4721 91.6667 70.1473 91.6666 70.8331V87.4998C91.6666 88.6049 91.2276 89.6647 90.4462 90.4461C89.6648 91.2275 88.605 91.6665 87.4999 91.6665H62.4999Z" stroke-width="5" stroke-linecap="round" stroke-linejoin="round" style="stroke: rgb(255, 255, 255);"/>
  <path d="M74.9999 41.6668C74.9999 32.8263 71.488 24.3478 65.2368 18.0966C58.9856 11.8454 50.5071 8.3335 41.6666 8.3335C32.826 8.3335 24.3476 11.8454 18.0964 18.0966C11.8451 24.3478 8.33325 32.8263 8.33325 41.6668C8.33325 62.471 31.4124 84.1377 39.1624 90.8293C39.8848 91.3711 40.7636 91.6636 41.6666 91.6627" stroke-width="5" stroke-linecap="round" stroke-linejoin="round" style="stroke: rgb(255, 255, 255);"/>
  <path d="M75 91.6665V79.1665" stroke-width="5" stroke-linecap="round" stroke-linejoin="round" style="stroke: rgb(255, 255, 255);"/>
  <path d="M41.6667 54.1665C48.5703 54.1665 54.1667 48.5701 54.1667 41.6665C54.1667 34.7629 48.5703 29.1665 41.6667 29.1665C34.7632 29.1665 29.1667 34.7629 29.1667 41.6665C29.1667 48.5701 34.7632 54.1665 41.6667 54.1665Z" stroke-width="5" stroke-linecap="round" stroke-linejoin="round" style="stroke: rgb(255, 255, 255);"/>
</svg>