<svg width="100" height="100" viewBox="0 0 100 100" fill="none" xmlns="http://www.w3.org/2000/svg">
<path d="M88.2249 28.3831C90.4279 26.1807 91.6657 23.1934 91.6661 20.0784C91.6665 16.9633 90.4294 13.9757 88.227 11.7727C86.0246 9.56976 83.0373 8.33193 79.9222 8.33154C76.8071 8.33115 73.8195 9.56823 71.6166 11.7706L16.0082 67.3915C15.0408 68.3561 14.3254 69.5437 13.9249 70.8498L8.42072 88.9831C8.31304 89.3435 8.3049 89.7263 8.39719 90.0909C8.48947 90.4554 8.67872 90.7883 8.94487 91.054C9.21102 91.3197 9.54414 91.5084 9.90888 91.6001C10.2736 91.6918 10.6564 91.6831 11.0166 91.5748L29.1541 86.0748C30.4589 85.6779 31.6464 84.9669 32.6124 84.004L88.2249 28.3831Z" stroke="black" stroke-width="5" stroke-linecap="round" stroke-linejoin="round"/>
<path d="M62.5 20.8335L79.1667 37.5002" stroke="black" stroke-width="5" stroke-linecap="round" stroke-linejoin="round"/>
</svg>
