<svg width="100" height="100" viewBox="0 0 100 100" fill="none" xmlns="http://www.w3.org/2000/svg">
<path d="M8.59174 51.45C8.24449 50.5146 8.24449 49.4855 8.59174 48.55C11.9738 40.3494 17.7147 33.3377 25.0866 28.4038C32.4585 23.4699 41.1294 20.8359 50.0001 20.8359C58.8707 20.8359 67.5416 23.4699 74.9135 28.4038C82.2854 33.3377 88.0263 40.3494 91.4084 48.55C91.7557 49.4855 91.7557 50.5146 91.4084 51.45C88.0263 59.6506 82.2854 66.6624 74.9135 71.5963C67.5416 76.5302 58.8707 79.1641 50.0001 79.1641C41.1294 79.1641 32.4585 76.5302 25.0866 71.5963C17.7147 66.6624 11.9738 59.6506 8.59174 51.45Z" stroke="black" stroke-width="5" stroke-linecap="round" stroke-linejoin="round"/>
<path d="M50 62.5C56.9036 62.5 62.5 56.9036 62.5 50C62.5 43.0964 56.9036 37.5 50 37.5C43.0964 37.5 37.5 43.0964 37.5 50C37.5 56.9036 43.0964 62.5 50 62.5Z" stroke="black" stroke-width="5" stroke-linecap="round" stroke-linejoin="round"/>
</svg>
