<svg width="100" height="100" viewBox="0 0 100 100" fill="none" xmlns="http://www.w3.org/2000/svg">
<path d="M37.75 49.5833L71.375 16C72.4711 14.8685 73.7813 13.9665 75.2295 13.3463C76.6776 12.7262 78.2346 12.4003 79.8099 12.3878C81.3852 12.3753 82.9472 12.6764 84.405 13.2734C85.8628 13.8705 87.1872 14.7516 88.3011 15.8656C89.4151 16.9795 90.2962 18.3039 90.8933 19.7617C91.4903 21.2195 91.7914 22.7815 91.7789 24.3568C91.7663 25.9321 91.4405 27.4891 90.8204 28.9372C90.2002 30.3853 89.2981 31.6956 88.1667 32.7917L54.5833 66.4583" stroke="black" stroke-width="5" stroke-linecap="round" stroke-linejoin="round"/>
<path d="M29.4584 62.25C22.5418 62.25 16.9584 67.875 16.9584 74.8333C16.9584 80.375 6.54176 81.1667 8.62509 83.25C13.1251 87.8333 19.0001 91.6667 25.2918 91.6667C34.4584 91.6667 41.9584 84.1667 41.9584 74.8333C41.9639 73.1863 41.6449 71.5544 41.0197 70.0307C40.3945 68.5069 39.4753 67.1213 38.3145 65.9528C37.1538 64.7843 35.7743 63.8559 34.2548 63.2206C32.7352 62.5853 31.1054 62.2555 29.4584 62.25Z" stroke="black" stroke-width="5" stroke-linecap="round" stroke-linejoin="round"/>
</svg>
