<svg width="100" height="100" viewBox="0 0 100 100" fill="none" xmlns="http://www.w3.org/2000/svg">
<path d="M63.3333 12.5C65.5314 12.5313 67.6281 13.4299 69.1667 15L85 30.8333C86.5701 32.3719 87.4687 34.4686 87.5 36.6667V79.1667C87.5 81.3768 86.622 83.4964 85.0592 85.0592C83.4964 86.622 81.3768 87.5 79.1667 87.5H20.8333C18.6232 87.5 16.5036 86.622 14.9408 85.0592C13.378 83.4964 12.5 81.3768 12.5 79.1667V20.8333C12.5 18.6232 13.378 16.5036 14.9408 14.9408C16.5036 13.378 18.6232 12.5 20.8333 12.5H63.3333Z" stroke="black" stroke-width="5" stroke-linecap="round" stroke-linejoin="round"/>
<path d="M70.8334 87.5001V58.3334C70.8334 57.2283 70.3944 56.1685 69.613 55.3871C68.8316 54.6057 67.7718 54.1667 66.6668 54.1667H33.3334C32.2283 54.1667 31.1685 54.6057 30.3871 55.3871C29.6057 56.1685 29.1667 57.2283 29.1667 58.3334V87.5001" stroke="black" stroke-width="5" stroke-linecap="round" stroke-linejoin="round"/>
<path d="M29.1667 12.5V29.1667C29.1667 30.2717 29.6057 31.3315 30.3871 32.1129C31.1685 32.8943 32.2283 33.3333 33.3334 33.3333H62.5001" stroke="black" stroke-width="5" stroke-linecap="round" stroke-linejoin="round"/>
</svg>
