<svg width="100" height="100" viewBox="0 0 100 100" fill="none" xmlns="http://www.w3.org/2000/svg">
<path d="M83.3333 29.1666H70.8333C68.6232 29.1666 66.5036 28.2886 64.9408 26.7258C63.378 25.163 62.5 23.0434 62.5 20.8333V8.33325" stroke="black" stroke-width="5" stroke-linecap="round" stroke-linejoin="round"/>
<path d="M37.5001 74.9999C35.2899 74.9999 33.1703 74.1219 31.6075 72.5591C30.0447 70.9963 29.1667 68.8767 29.1667 66.6666V16.6666C29.1667 14.4564 30.0447 12.3368 31.6075 10.774C33.1703 9.21123 35.2899 8.33325 37.5001 8.33325H66.6668L83.3334 24.9999V66.6666C83.3334 68.8767 82.4554 70.9963 80.8926 72.5591C79.3298 74.1219 77.2102 74.9999 75.0001 74.9999H37.5001Z" stroke="black" stroke-width="5" stroke-linecap="round" stroke-linejoin="round"/>
<path d="M12.5 31.6667V85.0001C12.5 86.7682 13.2024 88.4639 14.4526 89.7141C15.7029 90.9644 17.3986 91.6667 19.1667 91.6667H60" stroke="black" stroke-width="5" stroke-linecap="round" stroke-linejoin="round"/>
</svg>
