<svg width="100" height="100" viewBox="0 0 100 100" fill="none" xmlns="http://www.w3.org/2000/svg">
<path d="M50 33.3333C70.7107 33.3333 87.5 27.7368 87.5 20.8333C87.5 13.9297 70.7107 8.33325 50 8.33325C29.2893 8.33325 12.5 13.9297 12.5 20.8333C12.5 27.7368 29.2893 33.3333 50 33.3333Z" stroke="black" stroke-width="5" stroke-linecap="round" stroke-linejoin="round"/>
<path d="M12.5 18.8333V77.1666C12.5 80.4818 16.4509 83.6612 23.4835 86.0054C30.5161 88.3496 40.0544 89.6666 50 89.6666C59.9456 89.6666 69.4839 88.3496 76.5165 86.0054C83.5491 83.6612 87.5 80.4818 87.5 77.1666V18.8333" stroke="black" stroke-width="5" stroke-linecap="round" stroke-linejoin="round"/>
<path d="M12.5 48C12.5 51.3152 16.4509 54.4946 23.4835 56.8388C30.5161 59.183 40.0544 60.5 50 60.5C59.9456 60.5 69.4839 59.183 76.5165 56.8388C83.5491 54.4946 87.5 51.3152 87.5 48" stroke="black" stroke-width="5" stroke-linecap="round" stroke-linejoin="round"/>
</svg>
