<svg width="100" height="100" viewBox="0 0 100 100" fill="none" xmlns="http://www.w3.org/2000/svg">
<path d="M62.5 87.5V54.1667C62.5 53.0616 62.061 52.0018 61.2796 51.2204C60.4982 50.439 59.4384 50 58.3333 50H41.6667C40.5616 50 39.5018 50.439 38.7204 51.2204C37.939 52.0018 37.5 53.0616 37.5 54.1667V87.5" stroke="black" stroke-width="5" stroke-linecap="round" stroke-linejoin="round"/>
<path d="M12.5 41.6666C12.4997 40.4544 12.7639 39.2567 13.2741 38.1571C13.7843 37.0575 14.5283 36.0824 15.4542 35.2999L44.6208 10.3041C46.1249 9.0329 48.0307 8.33545 50 8.33545C51.9693 8.33545 53.8751 9.0329 55.3792 10.3041L84.5458 35.2999C85.4717 36.0824 86.2157 37.0575 86.7259 38.1571C87.2361 39.2567 87.5003 40.4544 87.5 41.6666V79.1666C87.5 81.3767 86.622 83.4964 85.0592 85.0592C83.4964 86.622 81.3768 87.4999 79.1667 87.4999H20.8333C18.6232 87.4999 16.5036 86.622 14.9408 85.0592C13.378 83.4964 12.5 81.3767 12.5 79.1666V41.6666Z" stroke="black" stroke-width="5" stroke-linecap="round" stroke-linejoin="round"/>
</svg>
