<svg width="100" height="100" viewBox="0 0 100 100" fill="none" xmlns="http://www.w3.org/2000/svg">
<path d="M45 21.3146C54.7058 20.1579 64.5234 22.2097 72.9536 27.1565C81.3839 32.1033 87.9634 39.6732 91.6875 48.7104C92.0348 49.6459 92.0348 50.675 91.6875 51.6104C90.1562 55.3229 88.1325 58.8125 85.6708 61.9854" stroke="black" stroke-width="5" stroke-linecap="round" stroke-linejoin="round"/>
<path d="M58.6834 58.9916C56.3259 61.2686 53.1684 62.5286 49.8909 62.5001C46.6134 62.4716 43.4783 61.157 41.1607 58.8394C38.8431 56.5218 37.5285 53.3866 37.5 50.1092C37.4715 46.8317 38.7314 43.6742 41.0084 41.3167" stroke="black" stroke-width="5" stroke-linecap="round" stroke-linejoin="round"/>
<path d="M40.5577 41.831C42.5234 39.2083 45.4406 37.4625 48.6809 36.9697C51.9212 36.477 55.2255 37.2766 57.882 39.1964C60.5384 41.1162 62.3346 44.0026 62.8836 47.2339C63.4326 50.4651 62.6905 53.7828 60.8172 56.4722" stroke="black" stroke-width="5" stroke-linecap="round" stroke-linejoin="round"/>
<path d="M72.8292 72.9125C67.3021 76.1866 61.1353 78.2334 54.7474 78.9142C48.3595 79.5949 41.8999 78.8936 35.8069 76.8579C29.7139 74.8221 24.13 71.4996 19.4343 67.1156C14.7385 62.7317 11.0407 57.389 8.59174 51.45C8.24449 50.5145 8.24449 49.4855 8.59174 48.55C12.286 39.5911 18.7862 32.0719 27.1167 27.1208" stroke="black" stroke-width="5" stroke-linecap="round" stroke-linejoin="round"/>
<path d="M8.33325 8.33325L91.6666 91.6666" stroke="black" stroke-width="5" stroke-linecap="round" stroke-linejoin="round"/>
</svg>
