<svg width="100" height="100" viewBox="0 0 100 100" fill="none" xmlns="http://www.w3.org/2000/svg">
<path d="M66.6667 20.8333H91.6667" stroke="black" stroke-width="5" stroke-linecap="round" stroke-linejoin="round"/>
<path d="M79.1667 8.33325V33.3333" stroke="black" stroke-width="5" stroke-linecap="round" stroke-linejoin="round"/>
<path d="M87.5 47.9167V79.1667C87.5 81.3768 86.622 83.4964 85.0592 85.0592C83.4964 86.622 81.3768 87.5 79.1667 87.5H20.8333C18.6232 87.5 16.5036 86.622 14.9408 85.0592C13.378 83.4964 12.5 81.3768 12.5 79.1667V20.8333C12.5 18.6232 13.378 16.5036 14.9408 14.9408C16.5036 13.378 18.6232 12.5 20.8333 12.5H52.0833" stroke="black" stroke-width="5" stroke-linecap="round" stroke-linejoin="round"/>
<path d="M87.5 62.4999L74.6417 49.6415C73.0789 48.0793 70.9597 47.2017 68.75 47.2017C66.5403 47.2017 64.4211 48.0793 62.8583 49.6415L25 87.4999" stroke="black" stroke-width="5" stroke-linecap="round" stroke-linejoin="round"/>
<path d="M37.5001 45.8334C42.1025 45.8334 45.8334 42.1025 45.8334 37.5001C45.8334 32.8977 42.1025 29.1667 37.5001 29.1667C32.8977 29.1667 29.1667 32.8977 29.1667 37.5001C29.1667 42.1025 32.8977 45.8334 37.5001 45.8334Z" stroke="black" stroke-width="5" stroke-linecap="round" stroke-linejoin="round"/>
</svg>
