<svg width="100" height="100" viewBox="0 0 100 100" fill="none" xmlns="http://www.w3.org/2000/svg">
<path d="M75 81.3333C75 74.7028 72.3661 68.344 67.6777 63.6556C62.9893 58.9672 56.6304 56.3333 50 56.3333C43.3696 56.3333 37.0107 58.9672 32.3223 63.6556C27.6339 68.344 25 74.7028 25 81.3333" stroke="black" stroke-width="5" stroke-linecap="round" stroke-linejoin="round"/>
<path d="M49.9999 56.3333C59.2047 56.3333 66.6666 48.8714 66.6666 39.6667C66.6666 30.4619 59.2047 23 49.9999 23C40.7952 23 33.3333 30.4619 33.3333 39.6667C33.3333 48.8714 40.7952 56.3333 49.9999 56.3333Z" stroke="black" stroke-width="5" stroke-linecap="round" stroke-linejoin="round"/>
<path d="M49.9999 89.6666C73.0118 89.6666 91.6666 71.0118 91.6666 47.9999C91.6666 24.9881 73.0118 6.33325 49.9999 6.33325C26.9881 6.33325 8.33325 24.9881 8.33325 47.9999C8.33325 71.0118 26.9881 89.6666 49.9999 89.6666Z" stroke="black" stroke-width="5" stroke-linecap="round" stroke-linejoin="round"/>
</svg>
