<svg width="86" height="96" viewBox="0 0 86 96" fill="none" xmlns="http://www.w3.org/2000/svg">
<path d="M23 33.9147C23 28.633 25.1071 23.5676 28.8579 19.8329C32.6086 16.0981 37.6957 14 43 14C48.3043 14 53.3914 16.0981 57.1421 19.8329C60.8929 23.5676 63 28.633 63 33.9147C63 57.1485 73 63.7867 73 63.7867H13C13 63.7867 23 57.1485 23 33.9147Z" stroke="black" stroke-width="5" stroke-linecap="round" stroke-linejoin="round"/>
<path d="M35 78C35.7877 79.4266 36.9456 80.6163 38.3529 81.445C39.7602 82.2736 41.3651 82.7108 43 82.7108C44.6349 82.7108 46.2398 82.2736 47.6471 81.445C49.0544 80.6163 50.2123 79.4266 51 78" stroke="black" stroke-width="5" stroke-linecap="round" stroke-linejoin="round"/>
</svg>
