<svg width="100" height="100" viewBox="0 0 100 100" fill="none" xmlns="http://www.w3.org/2000/svg">
<path d="M62.4999 8.3335H37.4999C35.1987 8.3335 33.3333 10.199 33.3333 12.5002V20.8335C33.3333 23.1347 35.1987 25.0002 37.4999 25.0002H62.4999C64.8011 25.0002 66.6666 23.1347 66.6666 20.8335V12.5002C66.6666 10.199 64.8011 8.3335 62.4999 8.3335Z" stroke="black" stroke-width="5" stroke-linecap="round" stroke-linejoin="round"/>
<path d="M66.6667 16.6665H75.0001C77.2102 16.6665 79.3298 17.5445 80.8926 19.1073C82.4554 20.6701 83.3334 22.7897 83.3334 24.9998V83.3332C83.3334 85.5433 82.4554 87.6629 80.8926 89.2257C79.3298 90.7885 77.2102 91.6665 75.0001 91.6665H25.0001C22.7899 91.6665 20.6703 90.7885 19.1075 89.2257C17.5447 87.6629 16.6667 85.5433 16.6667 83.3332V24.9998C16.6667 22.7897 17.5447 20.6701 19.1075 19.1073C20.6703 17.5445 22.7899 16.6665 25.0001 16.6665H33.3334" stroke="black" stroke-width="5" stroke-linecap="round" stroke-linejoin="round"/>
<path d="M50 45.8335H66.6667" stroke="black" stroke-width="5" stroke-linecap="round" stroke-linejoin="round"/>
<path d="M50 66.6665H66.6667" stroke="black" stroke-width="5" stroke-linecap="round" stroke-linejoin="round"/>
<path d="M33.3333 45.8335H33.3749" stroke="black" stroke-width="5" stroke-linecap="round" stroke-linejoin="round"/>
<path d="M33.3333 66.6665H33.3749" stroke="black" stroke-width="5" stroke-linecap="round" stroke-linejoin="round"/>
</svg>
