<svg width="100" height="100" viewBox="0 0 100 100" fill="none" xmlns="http://www.w3.org/2000/svg">
<path d="M50.9167 8.33325H49.0833C46.8732 8.33325 44.7536 9.21123 43.1908 10.774C41.628 12.3368 40.75 14.4564 40.75 16.6666V17.4166C40.7485 18.8779 40.3627 20.3132 39.6314 21.5784C38.9001 22.8436 37.8489 23.8942 36.5833 24.6249L34.7917 25.6666C33.5248 26.398 32.0878 26.783 30.625 26.783C29.1622 26.783 27.7252 26.398 26.4583 25.6666L25.8333 25.3333C23.9211 24.2302 21.6493 23.9309 19.5167 24.5012C17.384 25.0715 15.5648 26.4647 14.4583 28.3749L13.5417 29.9583C12.4386 31.8705 12.1394 34.1423 12.7096 36.2749C13.2799 38.4076 14.6731 40.2268 16.5833 41.3333L17.2083 41.7499C18.4678 42.4771 19.5151 43.5211 20.2461 44.7784C20.977 46.0356 21.3662 47.4623 21.375 48.9166V51.0416C21.3808 52.51 20.9986 53.9539 20.2669 55.227C19.5352 56.5002 18.48 57.5574 17.2083 58.2916L16.5833 58.6666C14.6731 59.7731 13.2799 61.5923 12.7096 63.7249C12.1394 65.8576 12.4386 68.1294 13.5417 70.0416L14.4583 71.6249C15.5648 73.5352 17.384 74.9284 19.5167 75.4986C21.6493 76.0689 23.9211 75.7697 25.8333 74.6666L26.4583 74.3333C27.7252 73.6019 29.1622 73.2168 30.625 73.2168C32.0878 73.2168 33.5248 73.6019 34.7917 74.3333L36.5833 75.3749C37.8489 76.1056 38.9001 77.1562 39.6314 78.4214C40.3627 79.6866 40.7485 81.1219 40.75 82.5833V83.3333C40.75 85.5434 41.628 87.663 43.1908 89.2258C44.7536 90.7886 46.8732 91.6666 49.0833 91.6666H50.9167C53.1268 91.6666 55.2464 90.7886 56.8092 89.2258C58.372 87.663 59.25 85.5434 59.25 83.3333V82.5833C59.2515 81.1219 59.6373 79.6866 60.3686 78.4214C61.0999 77.1562 62.1511 76.1056 63.4167 75.3749L65.2083 74.3333C66.4752 73.6019 67.9122 73.2168 69.375 73.2168C70.8378 73.2168 72.2748 73.6019 73.5417 74.3333L74.1667 74.6666C76.0789 75.7697 78.3507 76.0689 80.4833 75.4986C82.616 74.9284 84.4352 73.5352 85.5417 71.6249L86.4583 69.9999C87.5614 68.0877 87.8607 65.8159 87.2904 63.6833C86.7201 61.5506 85.3269 59.7314 83.4167 58.6249L82.7917 58.2916C81.52 57.5574 80.4648 56.5002 79.7332 55.227C79.0015 53.9539 78.6192 52.51 78.625 51.0416V48.9583C78.6192 47.4898 79.0015 46.046 79.7332 44.7728C80.4648 43.4997 81.52 42.4425 82.7917 41.7083L83.4167 41.3333C85.3269 40.2268 86.7201 38.4076 87.2904 36.2749C87.8607 34.1423 87.5614 31.8705 86.4583 29.9583L85.5417 28.3749C84.4352 26.4647 82.616 25.0715 80.4833 24.5012C78.3507 23.9309 76.0789 24.2302 74.1667 25.3333L73.5417 25.6666C72.2748 26.398 70.8378 26.783 69.375 26.783C67.9122 26.783 66.4752 26.398 65.2083 25.6666L63.4167 24.6249C62.1511 23.8942 61.0999 22.8436 60.3686 21.5784C59.6373 20.3132 59.2515 18.8779 59.25 17.4166V16.6666C59.25 14.4564 58.372 12.3368 56.8092 10.774C55.2464 9.21123 53.1268 8.33325 50.9167 8.33325Z" stroke="black" stroke-width="5" stroke-linecap="round" stroke-linejoin="round"/>
<path d="M50 62.5C56.9036 62.5 62.5 56.9036 62.5 50C62.5 43.0964 56.9036 37.5 50 37.5C43.0964 37.5 37.5 43.0964 37.5 50C37.5 56.9036 43.0964 62.5 50 62.5Z" stroke="black" stroke-width="5" stroke-linecap="round" stroke-linejoin="round"/>
</svg>
