<svg width="100" height="100" viewBox="0 0 100 100" fill="none" xmlns="http://www.w3.org/2000/svg">
<path d="M29.1667 41.6667V91.6667" stroke="black" stroke-width="6" stroke-linecap="round" stroke-linejoin="round"/>
<path d="M62.4999 24.4999L58.3333 41.6666H82.6249C83.9186 41.6666 85.1946 41.9678 86.3517 42.5464C87.5088 43.1249 88.5154 43.965 89.2916 44.9999C90.0678 46.0349 90.5924 47.2364 90.8238 48.5092C91.0553 49.7821 90.9872 51.0913 90.6249 52.3333L80.9166 85.6666C80.4117 87.3976 79.3591 88.9181 77.9166 89.9999C76.4741 91.0818 74.7197 91.6666 72.9166 91.6666H16.6666C14.4564 91.6666 12.3368 90.7886 10.774 89.2258C9.21123 87.663 8.33325 85.5434 8.33325 83.3333V49.9999C8.33325 47.7898 9.21123 45.6702 10.774 44.1074C12.3368 42.5446 14.4564 41.6666 16.6666 41.6666H28.1666C29.7169 41.6658 31.2363 41.2325 32.5539 40.4154C33.8715 39.5984 34.935 38.43 35.6249 37.0416L49.9999 8.33325C51.9648 8.35758 53.8988 8.82562 55.6574 9.7024C57.416 10.5792 58.9538 11.842 60.1558 13.3966C61.3578 14.9512 62.1929 16.7573 62.5988 18.6799C63.0047 20.6026 62.9709 22.5921 62.4999 24.4999Z" stroke="black" stroke-width="6" stroke-linecap="round" stroke-linejoin="round"/>
</svg>
