<svg width="89" height="90" viewBox="0 0 89 90" fill="none" xmlns="http://www.w3.org/2000/svg">
<path d="M64.7915 53V3" stroke="black" stroke-width="6" stroke-linecap="round" stroke-linejoin="round"/>
<path d="M31.4583 70.1667L35.625 53H11.3333C10.0396 53 8.76368 52.6988 7.60655 52.1202C6.44942 51.5417 5.44289 50.7016 4.66667 49.6667C3.89044 48.6317 3.36584 47.4302 3.13442 46.1574C2.90299 44.8845 2.9711 43.5753 3.33333 42.3333L13.0417 9C13.5465 7.26904 14.5992 5.74852 16.0417 4.66667C17.4841 3.58482 19.2386 3 21.0417 3H77.2917C79.5018 3 81.6214 3.87797 83.1842 5.44078C84.747 7.00358 85.625 9.1232 85.625 11.3333V44.6667C85.625 46.8768 84.747 48.9964 83.1842 50.5592C81.6214 52.122 79.5018 53 77.2917 53H65.7917C64.2413 53.0008 62.7219 53.4341 61.4043 54.2512C60.0868 55.0682 59.0232 56.2366 58.3333 57.625L43.9583 86.3333C41.9934 86.309 40.0594 85.841 38.3008 84.9642C36.5422 84.0874 35.0045 82.8246 33.8025 81.27C32.6005 79.7154 31.7653 77.9093 31.3594 75.9867C30.9535 74.064 30.9873 72.0744 31.4583 70.1667Z" stroke="black" stroke-width="6" stroke-linecap="round" stroke-linejoin="round"/>
</svg>
