<svg width="90" height="90" viewBox="0 0 90 90" fill="none" xmlns="http://www.w3.org/2000/svg">
<path d="M47.1975 9.6975C45.7913 8.29088 43.884 7.50042 41.895 7.5H15C13.0109 7.5 11.1032 8.29018 9.6967 9.6967C8.29018 11.1032 7.5 13.0109 7.5 15V41.895C7.50042 43.884 8.29088 45.7913 9.6975 47.1975L42.3375 79.8375C44.0419 81.5312 46.3472 82.4817 48.75 82.4817C51.1528 82.4817 53.4581 81.5312 55.1625 79.8375L79.8375 55.1625C81.5312 53.4581 82.4817 51.1528 82.4817 48.75C82.4817 46.3472 81.5312 44.0419 79.8375 42.3375L47.1975 9.6975Z" stroke="black" stroke-width="5" stroke-linecap="round" stroke-linejoin="round"/>
<path d="M28.125 30C29.1605 30 30 29.1605 30 28.125C30 27.0895 29.1605 26.25 28.125 26.25C27.0895 26.25 26.25 27.0895 26.25 28.125C26.25 29.1605 27.0895 30 28.125 30Z" fill="black" stroke="black" stroke-width="5" stroke-linecap="round" stroke-linejoin="round"/>
</svg>
